<svg width="143" height="100" viewBox="0 0 143 100" fill="none" xmlns="http://www.w3.org/2000/svg">
<path d="M37.3345 0H24.9141V12.4204H37.3345V0Z" fill="white"/>
<path d="M117.444 0H105.023V12.4204H117.444V0Z" fill="white"/>
<path d="M105.026 12.4219H92.6055V24.8423H105.026V12.4219Z" fill="white"/>
<path d="M129.874 37.2734H119.657V24.8529H117.454H105.033H92.6339H49.7744V12.4219H37.354V24.8529H24.9336V86.2739H37.354V74.5772H62.131H94.7945H107.215V66.1266H107.247V86.2952H119.667V49.7044H129.885V37.284L129.874 37.2734ZM62.1097 57.5164H49.6893V45.096H62.1097V57.5164ZM92.602 57.5164H80.1816V45.0853H92.602V57.5164Z" fill="white"/>
<path d="M24.8423 37.2715H12.4219V49.6919H24.8423V37.2715Z" fill="white"/>
<path d="M0 62.1452V62.1665V74.5657H12.4204V62.1665V62.1452V49.7461H0V62.1452Z" fill="white"/>
<path d="M129.875 49.7461V61.7834V62.1665V74.2038H142.295V62.1665V61.7834V49.7461H129.875Z" fill="white"/>
<path d="M49.6897 87.0391H37.3438V99.4595H49.6897V99.4701H62.1101V87.0391H49.7642H49.6897Z" fill="white"/>
<path d="M94.8051 87.0391H82.4805V99.4701H94.8051H94.9009H107.226V87.0391H94.9009H94.8051Z" fill="white"/>
</svg>
