<svg width="91" height="89" viewBox="0 0 91 89" fill="none" xmlns="http://www.w3.org/2000/svg">
<path d="M13 25.8912H26.3358V13H13V25.8912Z" fill="white"/>
<path d="M13 76.8912H26.3358V64H13V76.8912Z" fill="white"/>
<path d="M65 25.8912H78.3358V13H65V25.8912Z" fill="white"/>
<path d="M0 37.8912H13.3358V25H0V37.8912Z" fill="white"/>
<path d="M77 37.8912H90.3358V25H77V37.8912Z" fill="white"/>
<path d="M0 50.8912H13.3358V38H0V50.8912Z" fill="white"/>
<path d="M77 50.8912H90.3358V38H77V50.8912Z" fill="white"/>
<path d="M39 51.8912H52.3358V39H39V51.8912Z" fill="white"/>
<path d="M39 38.8912H52.3358V26H39V38.8912Z" fill="white"/>
<path d="M52 51.8912H65.3358V39H52V51.8912Z" fill="white"/>
<path d="M0 63.8912H13.3358V51H0V63.8912Z" fill="white"/>
<path d="M77 63.8912H90.3358V51H77V63.8912Z" fill="white"/>
<path d="M26 12.8912H39.3358V0H26V12.8912Z" fill="white"/>
<path d="M26 88.8912H39.3358V76H26V88.8912Z" fill="white"/>
<path d="M39 12.8912H52.3358V0H39V12.8912Z" fill="white"/>
<path d="M39 88.8912H52.3358V76H39V88.8912Z" fill="white"/>
<path d="M52 12.8912H65.3358V0H52V12.8912Z" fill="white"/>
<path d="M52 88.8912H65.3358V76H52V88.8912Z" fill="white"/>
<path d="M65 75.8912H78.3358V63H65V75.8912Z" fill="white"/>
</svg>
