<svg width="94" height="116" viewBox="0 0 94 116" fill="none" xmlns="http://www.w3.org/2000/svg">
<path d="M13.3359 12.8912H26.6717V0H13.3359V12.8912Z" fill="#324BFF"/>
<path d="M13.625 63.401H92.8664V13.1504H13.625V63.401Z" fill="white"/>
<path d="M26.6797 12.8912H40.0154V0H26.6797V12.8912Z" fill="#324BFF"/>
<path d="M40.0117 12.8912H53.3475V0H40.0117V12.8912Z" fill="#324BFF"/>
<path d="M53.2461 25.0768H66.5818V12.1855H53.2461V25.0768Z" fill="#324BFF"/>
<path d="M13.3359 64.6979H26.6717V51.8066H13.3359V64.6979Z" fill="#324BFF"/>
<path d="M26.6797 64.6979H40.0154V51.8066H26.6797V64.6979Z" fill="#324BFF"/>
<path d="M40.0117 64.6979H53.3475V51.8066H40.0117V64.6979Z" fill="#324BFF"/>
<path d="M53.2461 76.2916H66.5818V63.4004H53.2461V76.2916Z" fill="#324BFF"/>
<path d="M66.582 25.0768H79.9178V12.1855H66.582V25.0768Z" fill="#324BFF"/>
<path d="M66.582 76.2916H79.9178V63.4004H66.582V76.2916Z" fill="#324BFF"/>
<path d="M79.9258 25.0768H93.2615V12.1855H79.9258V25.0768Z" fill="#324BFF"/>
<path d="M79.9258 76.2916H93.2615V63.4004H79.9258V76.2916Z" fill="#324BFF"/>
<path d="M79.9258 63.7486H93.2615V50.8574H79.9258V63.7486Z" fill="#324BFF"/>
<path d="M79.9258 50.858H93.2615V37.9668H79.9258V50.858Z" fill="#324BFF"/>
<path d="M79.9258 37.9654H93.2615V25.0742H79.9258V37.9654Z" fill="#324BFF"/>
<path d="M0 12.8912H13.3357V0H0V12.8912Z" fill="#324BFF"/>
<path d="M0 90.2291H13.3357V77.3379H0V90.2291Z" fill="#324BFF"/>
<path d="M0 103.118H13.3357V90.2266H0V103.118Z" fill="#324BFF"/>
<path d="M0 116.001H13.3357V103.109H0V116.001Z" fill="#324BFF"/>
<path d="M0 77.3366H13.3357V64.4453H0V77.3366Z" fill="#324BFF"/>
<path d="M0 64.4479H13.3357V51.5566H0V64.4479Z" fill="#324BFF"/>
<path d="M0 51.5553H13.3357V38.6641H0V51.5553Z" fill="#324BFF"/>
<path d="M0 38.6647H13.3357V25.7734H0V38.6647Z" fill="#324BFF"/>
<path d="M0 25.7721H13.3357V12.8809H0V25.7721Z" fill="#324BFF"/>
<path d="M0 12.8912H13.3357V0H0V12.8912Z" fill="#324BFF"/>
</svg>
