<svg width="1512" height="114" viewBox="0 0 1512 114" fill="none" xmlns="http://www.w3.org/2000/svg">
<rect width="1681.39" height="40.6294" transform="translate(-104.242) rotate(2.47739)" fill="black"/>
<g clip-path="url(#clip0_62_239)">
<path d="M-4.04279 16.3572L0.0823533 21.8112L-2.05093 21.7178L-5.54547 17.1169L-7.41209 17.0352L-7.60636 21.4747L-9.20632 21.4047L-8.76172 11.2441L-7.16175 11.3142L-7.346 15.5248L-5.47938 15.6065L-1.69521 11.5534L0.438066 11.6467L-4.04279 16.3572Z" fill="#ADB7FF"/>
<path d="M5.51628 11.6396C8.53843 11.7719 10.618 14.1098 10.4838 17.1763C10.3497 20.2428 8.0738 22.3902 5.05165 22.2579C2.0295 22.1257 -0.0500923 19.7877 0.0840902 16.7212C0.218273 13.6548 2.53858 11.5093 5.51628 11.6396ZM5.12175 20.656C7.16614 20.7455 8.74731 19.2097 8.83944 17.1044C8.93357 14.9532 7.49058 13.331 5.44619 13.2415C3.40179 13.1521 1.82062 14.6879 1.72849 16.7932C1.67881 18.9463 3.07735 20.5666 5.12175 20.656Z" fill="#ADB7FF"/>
<path d="M21.6436 12.5725L23.1991 12.6406L22.7545 22.8011L21.1101 22.7292L21.4406 15.1774L18.0464 19.4769L17.0242 19.4322L14.0185 14.8526L13.6881 22.4044L12.0437 22.3325L12.4883 12.1719L14.0438 12.2399L17.5932 17.6228L21.6436 12.5725Z" fill="#ADB7FF"/>
<path d="M30.441 17.1307C32.6187 17.226 33.7162 18.6039 33.6441 20.2515C33.57 21.945 32.3119 23.2197 30.2675 23.1303L24.9343 22.8969L25.3789 12.7363L33.0676 13.0728L32.9975 14.6747L26.9532 14.4102L26.8411 16.9732L30.441 17.1307ZM30.2932 21.5264C31.4042 21.5751 31.9656 20.9576 31.9997 20.1796C32.0317 19.4473 31.5729 18.7394 30.4173 18.6888L26.773 18.5293L26.6508 21.3212L30.2952 21.4807L30.2932 21.5264Z" fill="#ADB7FF"/>
<path d="M42.4845 23.6648L41.528 21.1009L36.8615 20.8967L35.6847 23.3673L33.907 23.2895L38.6181 13.3156L40.3959 13.3934L44.2178 23.7407L42.4845 23.6648ZM37.5962 19.3697L40.9739 19.5175L39.4613 15.416L37.5962 19.3697Z" fill="#ADB7FF"/>
<path d="M53.2394 13.9556L54.8394 14.0257L54.3948 24.1862L52.7948 24.1162L52.9851 19.7682L47.2963 19.5193L47.106 23.8673L45.4616 23.7953L45.9062 13.6348L47.5506 13.7067L47.3664 17.9174L53.0552 18.1663L53.2394 13.9556Z" fill="#ADB7FF"/>
<path d="M61.7424 19.2361L65.8675 24.6901L63.7342 24.5967L60.2841 19.9977L58.4175 19.9161L58.2232 24.3556L56.5788 24.2836L57.0234 14.123L58.6678 14.195L58.4836 18.4057L60.3502 18.4874L64.0899 14.4323L66.2677 14.5276L61.7424 19.2361Z" fill="#ADB7FF"/>
<path d="M2.19493 25.6143C5.03931 25.7388 7.03403 27.9813 6.90785 30.8647C6.78168 33.7481 4.59871 35.8078 1.75433 35.6834C-1.09004 35.5589 -3.08475 33.3164 -2.95858 30.433C-2.83041 27.5038 -0.649445 25.4898 2.19493 25.6143ZM1.82042 34.173C3.77593 34.2586 5.26421 32.8104 5.35233 30.7966C5.44045 28.7828 4.08435 27.2102 2.12884 27.1247C0.173333 27.0391 -1.31494 28.4872 -1.40306 30.501C-1.49118 32.5148 -0.135087 34.0874 1.82042 34.173Z" fill="#ADB7FF"/>
<path d="M22.7262 26.5127C25.5706 26.6372 27.5653 28.8797 27.4391 31.7631C27.3129 34.6465 25.13 36.7063 22.2856 36.5818C19.4412 36.4573 17.4465 34.2148 17.5727 31.3314C17.7008 28.4022 19.8818 26.3883 22.7262 26.5127ZM22.3517 35.0714C24.3072 35.157 25.7955 33.7089 25.8836 31.6951C25.9717 29.6813 24.6156 28.1087 22.6601 28.0231C20.7046 27.9375 19.2163 29.3857 19.1282 31.3995C19.0401 33.4133 20.3962 34.9859 22.3517 35.0714Z" fill="#ADB7FF"/>
<path d="M44.669 27.6627L46.0912 27.725L45.6686 37.3821L44.1576 37.316L44.474 30.0846L38.6466 37.0748L37.2688 37.0146L37.6914 27.3574L39.2025 27.4235L38.8881 34.6092L44.669 27.6627Z" fill="#ADB7FF"/>
<path d="M55.2511 28.1256L56.6732 28.1879L56.2507 37.845L54.7396 37.7789L55.056 30.5475L49.2286 37.5377L47.8509 37.4774L48.2734 27.8203L49.7845 27.8864L49.4701 35.0721L55.2511 28.1256Z" fill="#ADB7FF"/>
<path d="M15.7157 36.0706L14.1602 36.0026L14.5146 27.9015L10.6925 27.7343L10.6585 28.5124C10.5443 31.1212 10.1695 33.581 9.22455 34.8236C8.65518 35.6241 7.88963 35.8199 7.1341 35.7868C7.04521 35.7829 6.91188 35.7771 6.77855 35.7713L6.84464 34.2609C7.46484 34.3339 7.91929 34.1245 8.20998 33.587C8.88626 32.3784 9.0833 29.9108 9.18143 27.6682L9.24752 26.1578L16.0918 26.4573L15.6712 36.0687L15.7157 36.0706Z" fill="#ADB7FF"/>
<path d="M35.9822 28.8439L30.9156 28.6222L30.5612 36.7233L29.0501 36.6571L29.4727 27L36.0503 27.2878L35.9822 28.8439Z" fill="#ADB7FF"/>
</g>
<path d="M105.163 32.9087L108.149 38.4119L116.964 33.4192L115.986 43.5877L122.423 43.8662L122.328 33.6513L130.678 39.3867L134.128 34.1619L125.755 28.9629L134.546 24.5066L131.56 19.0034L122.745 23.9961L123.723 13.8276L117.286 13.5492L117.381 23.764L109.031 18.0287L105.58 23.2534L113.954 28.4524L105.163 32.9087Z" fill="#ADB7FF"/>
<g clip-path="url(#clip1_62_239)">
<path d="M210.1 20.4678C211.878 20.5456 213.266 21.3858 213.862 22.0081L212.784 23.2448C212.315 22.7658 211.274 22.1241 210.03 22.0697C207.808 21.9724 206.362 23.4683 206.268 25.6194C206.173 27.7705 207.394 29.383 209.705 29.4841C211.039 29.5425 212.226 28.8607 212.737 28.3787L213.657 29.7488C213.006 30.3623 211.457 31.1658 209.635 31.086C206.391 30.9441 204.489 28.6139 204.623 25.5474C204.757 22.4809 206.9 20.3277 210.1 20.4678Z" fill="#ADB7FF"/>
<path d="M220.141 20.9072C223.163 21.0395 225.243 23.3774 225.109 26.4439C224.975 29.5104 222.699 31.6577 219.677 31.5255C216.654 31.3932 214.575 29.0553 214.709 25.9888C214.843 22.9223 217.119 20.775 220.141 20.9072ZM219.747 29.9236C221.791 30.0131 223.372 28.4773 223.464 26.3719C223.559 24.2208 222.116 22.5986 220.071 22.5091C218.027 22.4197 216.446 23.9554 216.353 26.0608C216.259 28.2119 217.702 29.8341 219.747 29.9236Z" fill="#ADB7FF"/>
<path d="M235.371 29.0481C235.304 30.5585 234.309 31.9365 231.909 31.8315L226.665 31.602L227.109 21.4414L232.043 21.6573C234.043 21.7448 235.142 23.0769 235.08 24.4957C235.044 25.3195 234.656 26.0363 233.741 26.5923C234.616 26.9516 235.433 27.6293 235.371 29.0481ZM228.639 23.1133L228.521 25.8136L231.632 25.9498C232.743 25.9984 233.349 25.3829 233.381 24.6506C233.411 23.9641 232.948 23.3477 231.97 23.3049L228.637 23.1591L228.639 23.1133ZM232.068 30.2335C233.224 30.284 233.652 29.6608 233.684 28.9285C233.718 28.1504 233.21 27.5321 232.188 27.4874L228.455 27.324L228.335 30.0701L232.068 30.2335Z" fill="#ADB7FF"/>
<path d="M241.961 26.9979L246.086 32.4518L243.953 32.3585L240.458 27.7575L238.592 27.6758L238.398 32.1154L236.798 32.0453L237.242 21.8848L238.842 21.9548L238.658 26.1655L240.525 26.2471L244.309 22.194L246.442 22.2873L241.961 26.9979Z" fill="#ADB7FF"/>
<path d="M251.52 22.2803C254.542 22.4125 256.622 24.7505 256.488 27.8169C256.354 30.8834 254.078 33.0308 251.056 32.8985C248.033 32.7663 245.954 30.4284 246.088 27.3619C246.222 24.2954 248.542 22.15 251.52 22.2803ZM251.126 31.2966C253.17 31.3861 254.751 29.8503 254.843 27.745C254.937 25.5939 253.494 23.9716 251.45 23.8822C249.406 23.7927 247.825 25.3285 247.732 27.4338C247.683 29.5869 249.081 31.2072 251.126 31.2966Z" fill="#ADB7FF"/>
<path d="M267.64 23.2131L269.195 23.2812L268.751 33.4418L267.106 33.3698L267.437 25.818L264.042 30.1175L263.02 30.0728L260.015 25.4933L259.684 33.045L258.04 32.9731L258.484 22.8125L260.04 22.8806L263.589 28.2635L267.64 23.2131Z" fill="#ADB7FF"/>
<path d="M276.433 27.7714C278.611 27.8666 279.708 29.2445 279.636 30.8922C279.562 32.5856 278.304 33.8604 276.26 33.7709L270.926 33.5375L271.371 23.377L279.06 23.7134L278.99 25.3153L272.945 25.0508L272.833 27.6138L276.433 27.7714ZM276.285 32.1671C277.396 32.2157 277.958 31.5983 277.992 30.8202C278.024 30.0879 277.565 29.38 276.41 29.3294L272.765 29.17L272.643 31.9618L276.287 32.1213L276.285 32.1671Z" fill="#ADB7FF"/>
<path d="M288.481 34.3074L287.524 31.7435L282.858 31.5393L281.681 34.0099L279.903 33.9321L284.614 23.9582L286.392 24.036L290.214 34.3832L288.481 34.3074ZM283.592 30.0123L286.97 30.1601L285.457 26.0586L283.592 30.0123Z" fill="#ADB7FF"/>
<path d="M299.243 24.5982L300.843 24.6682L300.399 34.8288L298.799 34.7588L298.989 30.4108L293.3 30.1619L293.11 34.5099L291.466 34.4379L291.91 24.2773L293.555 24.3493L293.37 28.56L299.059 28.8089L299.243 24.5982Z" fill="#ADB7FF"/>
<path d="M307.742 29.8768L311.868 35.3307L309.734 35.2374L306.284 30.6384L304.417 30.5567L304.223 34.9962L302.579 34.9243L303.023 24.7637L304.668 24.8356L304.484 29.0463L306.35 29.128L310.09 25.0729L312.268 25.1682L307.742 29.8768Z" fill="#ADB7FF"/>
<path d="M212.562 36.4014L209.229 36.2555L208.872 44.4023L207.317 44.3342L207.673 36.1875L204.34 36.0416L204.406 34.5312L212.628 34.891L212.562 36.4014Z" fill="#ADB7FF"/>
<path d="M231.63 45.3956L229.764 45.3139L226.995 41.4325L223.897 45.0572L222.031 44.9755L226.067 40.2455L222.586 35.3242L224.453 35.4059L227.095 39.1441L230.053 35.6509L231.92 35.7326L228.024 40.2853L231.63 45.3956Z" fill="#ADB7FF"/>
<path d="M248.195 36.2569C251.039 36.3813 253.034 38.6239 252.908 41.5073C252.782 44.3907 250.599 46.4504 247.754 46.3259C244.91 46.2015 242.915 43.959 243.041 41.0755C243.17 38.1464 245.351 36.1324 248.195 36.2569ZM247.82 44.8156C249.776 44.9011 251.264 43.453 251.352 41.4392C251.44 39.4254 250.084 37.8528 248.129 37.7672C246.173 37.6817 244.685 39.1298 244.597 41.1436C244.509 43.1574 245.865 44.73 247.82 44.8156Z" fill="#ADB7FF"/>
<path d="M268.718 37.1534C271.563 37.2778 273.557 39.5203 273.431 42.4038C273.305 45.2872 271.122 47.3469 268.278 47.2224C265.433 47.098 263.439 44.8554 263.565 41.972C263.693 39.0428 265.874 37.0289 268.718 37.1534ZM268.344 45.7121C270.299 45.7976 271.788 44.3495 271.876 42.3357C271.964 40.3219 270.608 38.7493 268.652 38.6637C266.697 38.5782 265.208 40.0263 265.12 42.0401C265.032 44.0539 266.388 45.6265 268.344 45.7121Z" fill="#ADB7FF"/>
<path d="M240.32 36.1022L241.831 36.1683L241.408 45.8255L239.897 45.7593L240.082 41.5486L234.659 41.3114L234.475 45.5221L232.964 45.456L233.387 35.7988L234.898 35.8649L234.726 39.801L240.148 40.0383L240.32 36.1022Z" fill="#ADB7FF"/>
<path d="M290.669 38.3053L292.091 38.3676L291.669 48.0247L290.158 47.9586L290.474 40.7272L284.647 47.7174L283.269 47.6571L283.691 38L285.202 38.0661L284.888 45.2518L290.669 38.3053Z" fill="#ADB7FF"/>
<path d="M301.247 38.7682L302.669 38.8304L302.247 48.4876L300.736 48.4215L301.052 41.1901L295.225 48.1803L293.847 48.12L294.27 38.4629L295.781 38.529L295.466 45.7147L301.247 38.7682Z" fill="#ADB7FF"/>
<path d="M215.291 43.168L220.98 43.4169L220.914 44.9273L213.714 44.6122L214.137 34.9551L221.203 35.2643L221.137 36.7746L215.582 36.5316L215.472 39.0488L220.583 39.2725L220.516 40.7828L215.405 40.5592L215.291 43.168Z" fill="#ADB7FF"/>
<path d="M173.921 30.9885C173.594 38.4489 179.195 44.7929 186.484 45.1118C186.661 45.1196 186.839 45.1274 187.017 45.1352L187.243 39.9632L186.71 39.9399C182.221 39.7435 178.741 35.8309 178.943 31.2082C179.145 26.5856 182.954 22.992 187.443 23.1884L187.976 23.2117L188.201 18.0856C188.023 18.0778 187.845 18.07 187.667 18.0622C180.38 17.6975 174.247 23.5281 173.921 30.9885Z" fill="#ADB7FF"/>
<path d="M190.241 18.4085L189.932 25.457L187.31 25.3422C183.977 25.1964 181.144 27.8697 180.993 31.3024C180.843 34.735 183.432 37.6456 186.765 37.7914L189.388 37.9062L189.079 44.9546C195.135 43.9356 199.907 38.6875 200.193 32.1425C200.48 25.5975 196.185 19.9526 190.241 18.4085Z" fill="#ADB7FF"/>
<path d="M261.712 46.7132L260.156 46.6451L260.511 38.5441L256.689 38.3769L256.655 39.1549C256.54 41.7637 256.166 44.2236 255.221 45.4662C254.651 46.2667 253.886 46.4625 253.13 46.4294C253.041 46.4255 252.908 46.4197 252.775 46.4138L252.841 44.9035C253.461 44.9765 253.915 44.7671 254.206 44.2295C254.882 43.021 255.079 40.5534 255.178 38.3108L255.244 36.8004L262.088 37.0999L261.667 46.7113L261.712 46.7132Z" fill="#ADB7FF"/>
<path d="M281.986 39.4846L276.92 39.2629L276.565 47.3639L275.054 47.2978L275.477 37.6406L282.054 37.9284L281.986 39.4846Z" fill="#ADB7FF"/>
</g>
<path d="M351.159 43.5512L354.145 49.0545L362.96 44.0618L361.982 54.2302L368.419 54.5087L368.324 44.2939L376.674 50.0292L380.125 44.8045L371.751 39.6055L380.542 35.1492L377.556 29.646L368.741 34.6387L369.719 24.4702L363.282 24.1917L363.377 34.4066L355.027 28.6712L351.577 33.896L359.95 39.095L351.159 43.5512Z" fill="#ADB7FF"/>
<g clip-path="url(#clip2_62_239)">
<path d="M456.096 31.1103C457.874 31.1881 459.262 32.0284 459.858 32.6506L458.78 33.8874C458.311 33.4083 457.27 32.7667 456.026 32.7122C453.804 32.615 452.358 34.1108 452.264 36.262C452.17 38.4131 453.39 40.0256 455.701 40.1267C457.035 40.1851 458.222 39.5033 458.733 39.0213L459.653 40.3913C459.003 41.0049 457.453 41.8083 455.631 41.7286C452.387 41.5866 450.485 39.2565 450.619 36.19C450.753 33.1235 452.896 30.9703 456.096 31.1103Z" fill="#ADB7FF"/>
<path d="M466.137 31.5498C469.16 31.682 471.239 34.02 471.105 37.0865C470.971 40.153 468.695 42.3003 465.673 42.1681C462.651 42.0358 460.571 39.6979 460.705 36.6314C460.839 33.5649 463.115 31.4176 466.137 31.5498ZM465.743 40.5662C467.787 40.6556 469.368 39.1199 469.461 37.0145C469.555 34.8634 468.112 33.2412 466.067 33.1517C464.023 33.0622 462.442 34.598 462.35 36.7034C462.255 38.8545 463.698 40.4767 465.743 40.5662Z" fill="#ADB7FF"/>
<path d="M481.367 39.6907C481.301 41.2011 480.305 42.5791 477.905 42.474L472.661 42.2446L473.105 32.084L478.039 32.2999C480.039 32.3874 481.138 33.7194 481.076 35.1383C481.04 35.9621 480.652 36.6788 479.737 37.2349C480.612 37.5942 481.429 38.2719 481.367 39.6907ZM474.635 33.7559L474.517 36.4562L477.628 36.5924C478.739 36.641 479.345 36.0255 479.377 35.2932C479.407 34.6067 478.944 33.9903 477.967 33.9475L474.633 33.8017L474.635 33.7559ZM478.064 40.876C479.22 40.9266 479.648 40.3034 479.68 39.5711C479.714 38.793 479.207 38.1747 478.184 38.1299L474.451 37.9666L474.331 40.7127L478.064 40.876Z" fill="#ADB7FF"/>
<path d="M487.957 37.6404L492.082 43.0944L489.949 43.001L486.455 38.4001L484.588 38.3184L484.394 42.7579L482.794 42.6879L483.238 32.5273L484.838 32.5974L484.654 36.808L486.521 36.8897L490.305 32.8366L492.438 32.9299L487.957 37.6404Z" fill="#ADB7FF"/>
<path d="M497.516 32.9228C500.538 33.0551 502.618 35.393 502.484 38.4595C502.35 41.526 500.074 43.6734 497.052 43.5411C494.029 43.4089 491.95 41.0709 492.084 38.0044C492.218 34.938 494.539 32.7925 497.516 32.9228ZM497.122 41.9392C499.166 42.0287 500.747 40.4929 500.839 38.3876C500.934 36.2364 499.491 34.6142 497.446 34.5247C495.402 34.4353 493.821 35.9711 493.728 38.0764C493.679 40.2295 495.077 41.8498 497.122 41.9392Z" fill="#ADB7FF"/>
<path d="M513.636 33.8557L515.191 33.9238L514.747 44.0843L513.102 44.0124L513.433 36.4606L510.039 40.7601L509.016 40.7154L506.011 36.1358L505.68 43.6876L504.036 43.6157L504.48 33.4551L506.036 33.5231L509.585 38.906L513.636 33.8557Z" fill="#ADB7FF"/>
<path d="M522.429 38.4139C524.607 38.5092 525.704 39.8871 525.632 41.5347C525.558 43.2282 524.3 44.5029 522.256 44.4135L516.923 44.1801L517.367 34.0195L525.056 34.356L524.986 35.9579L518.941 35.6934L518.829 38.2564L522.429 38.4139ZM522.281 42.8096C523.393 42.8583 523.954 42.2408 523.988 41.4628C524.02 40.7305 523.561 40.0226 522.406 39.972L518.761 39.8125L518.639 42.6044L522.283 42.7639L522.281 42.8096Z" fill="#ADB7FF"/>
<path d="M534.477 44.95L533.52 42.386L528.854 42.1818L527.677 44.6524L525.899 44.5746L530.61 34.6008L532.388 34.6785L536.21 45.0258L534.477 44.95ZM529.588 40.6549L532.966 40.8027L531.454 36.7012L529.588 40.6549Z" fill="#ADB7FF"/>
<path d="M545.239 35.2408L546.839 35.3108L546.395 45.4714L544.795 45.4014L544.985 41.0534L539.296 40.8045L539.106 45.1525L537.462 45.0805L537.906 34.9199L539.551 34.9919L539.366 39.2026L545.055 39.4515L545.239 35.2408Z" fill="#ADB7FF"/>
<path d="M553.738 40.5193L557.864 45.9733L555.73 45.8799L552.28 41.2809L550.414 41.1993L550.219 45.6388L548.575 45.5668L549.02 35.4062L550.664 35.4782L550.48 39.6889L552.346 39.7706L556.086 35.7155L558.264 35.8108L553.738 40.5193Z" fill="#ADB7FF"/>
<path d="M458.558 47.044L455.225 46.8981L454.869 55.0449L453.313 54.9768L453.67 46.83L450.336 46.6842L450.402 45.1738L458.624 45.5336L458.558 47.044Z" fill="#ADB7FF"/>
<path d="M477.626 56.0381L475.76 55.9565L472.991 52.0751L469.893 55.6998L468.027 55.6181L472.063 50.8881L468.583 45.9668L470.449 46.0485L473.091 49.7867L476.049 46.2935L477.916 46.3752L474.021 50.9279L477.626 56.0381Z" fill="#ADB7FF"/>
<path d="M494.191 46.8995C497.035 47.0239 499.03 49.2664 498.904 52.1499C498.778 55.0333 496.595 57.093 493.75 56.9685C490.906 56.844 488.911 54.6015 489.038 51.7181C489.166 48.7889 491.347 46.775 494.191 46.8995ZM493.817 55.4582C495.772 55.5437 497.26 54.0956 497.348 52.0818C497.437 50.068 496.08 48.4954 494.125 48.4098C492.169 48.3242 490.681 49.7724 490.593 51.7862C490.505 53.8 491.861 55.3726 493.817 55.4582Z" fill="#ADB7FF"/>
<path d="M514.714 47.7959C517.559 47.9204 519.554 50.1629 519.427 53.0463C519.301 55.9297 517.118 57.9895 514.274 57.865C511.429 57.7405 509.435 55.498 509.561 52.6146C509.689 49.6854 511.87 47.6715 514.714 47.7959ZM514.34 56.3546C516.295 56.4402 517.784 54.9921 517.872 52.9783C517.96 50.9645 516.604 49.3919 514.648 49.3063C512.693 49.2207 511.205 50.6689 511.116 52.6827C511.028 54.6965 512.384 56.2691 514.34 56.3546Z" fill="#ADB7FF"/>
<path d="M486.316 46.7448L487.827 46.8109L487.404 56.468L485.893 56.4019L486.078 52.1912L480.656 51.954L480.471 56.1647L478.96 56.0985L479.383 46.4414L480.894 46.5075L480.722 50.4436L486.144 50.6809L486.316 46.7448Z" fill="#ADB7FF"/>
<path d="M536.665 48.9479L538.087 49.0101L537.665 58.6673L536.154 58.6011L536.47 51.3697L530.643 58.36L529.265 58.2997L529.688 48.6426L531.199 48.7087L530.884 55.8943L536.665 48.9479Z" fill="#ADB7FF"/>
<path d="M547.243 49.4108L548.665 49.473L548.243 59.1302L546.732 59.064L547.048 51.8326L541.221 58.8229L539.843 58.7626L540.266 49.1055L541.777 49.1716L541.462 56.3572L547.243 49.4108Z" fill="#ADB7FF"/>
<path d="M461.287 53.8106L466.976 54.0595L466.91 55.5698L459.71 55.2548L460.133 45.5977L467.199 45.9069L467.133 47.4172L461.578 47.1741L461.468 49.6914L466.579 49.915L466.513 51.4254L461.402 51.2018L461.287 53.8106Z" fill="#ADB7FF"/>
<path d="M419.917 41.6311C419.591 49.0914 425.191 55.4354 432.48 55.7544C432.657 55.7622 432.835 55.77 433.013 55.7777L433.239 50.6058L432.706 50.5825C428.217 50.3861 424.737 46.4735 424.939 41.8508C425.141 37.2281 428.95 33.6345 433.439 33.831L433.972 33.8543L434.197 28.7282C434.019 28.7204 433.841 28.7126 433.663 28.7048C426.376 28.3401 420.243 34.1707 419.917 41.6311Z" fill="#ADB7FF"/>
<path d="M436.237 29.0511L435.928 36.0996L433.306 35.9848C429.973 35.839 427.14 38.5122 426.99 41.9449C426.839 45.3776 429.428 48.2882 432.762 48.434L435.384 48.5488L435.075 55.5972C441.131 54.5782 445.903 49.3301 446.189 42.7851C446.476 36.2401 442.181 30.5952 436.237 29.0511Z" fill="#ADB7FF"/>
<path d="M507.708 57.3558L506.152 57.2877L506.507 49.1867L502.685 49.0195L502.651 49.7975C502.536 52.4063 502.162 54.8661 501.217 56.1088C500.647 56.9093 499.882 57.105 499.126 57.072C499.037 57.0681 498.904 57.0623 498.771 57.0564L498.837 55.5461C499.457 55.6191 499.911 55.4097 500.202 54.8721C500.878 53.6636 501.075 51.196 501.174 48.9533L501.24 47.443L508.084 47.7425L507.663 57.3538L507.708 57.3558Z" fill="#ADB7FF"/>
<path d="M527.982 50.1272L522.916 49.9055L522.561 58.0065L521.05 57.9403L521.473 48.2832L528.05 48.571L527.982 50.1272Z" fill="#ADB7FF"/>
</g>
<path d="M597.155 54.1958L600.141 59.699L608.956 54.7063L607.978 64.8748L614.415 65.1533L614.32 54.9384L622.67 60.6738L626.121 55.449L617.747 50.25L626.538 45.7938L623.552 40.2905L614.738 45.2832L615.715 35.1148L609.278 34.8363L609.374 45.0511L601.023 39.3158L597.573 44.5405L605.946 49.7395L597.155 54.1958Z" fill="#ADB7FF"/>
<g clip-path="url(#clip3_62_239)">
<path d="M702.092 41.7529C703.87 41.8307 705.258 42.671 705.854 43.2932L704.776 44.53C704.307 44.0509 703.266 43.4093 702.022 43.3548C699.8 43.2576 698.354 44.7534 698.26 46.9045C698.166 49.0556 699.386 50.6682 701.697 50.7693C703.031 50.8276 704.218 50.1459 704.729 49.6638L705.649 51.0339C704.999 51.6474 703.45 52.4509 701.627 52.3712C698.383 52.2292 696.481 49.8991 696.615 46.8326C696.75 43.7661 698.892 41.6129 702.092 41.7529Z" fill="#ADB7FF"/>
<path d="M712.133 42.1924C715.156 42.3246 717.235 44.6626 717.101 47.729C716.967 50.7955 714.691 52.9429 711.669 52.8106C708.647 52.6784 706.567 50.3405 706.701 47.274C706.835 44.2075 709.111 42.0601 712.133 42.1924ZM711.739 51.2088C713.783 51.2982 715.364 49.7624 715.457 47.6571C715.551 45.506 714.108 43.8837 712.063 43.7943C710.019 43.7048 708.438 45.2406 708.346 47.3459C708.252 49.497 709.695 51.1193 711.739 51.2088Z" fill="#ADB7FF"/>
<path d="M727.363 50.3333C727.297 51.8437 726.301 53.2216 723.901 53.1166L718.657 52.8871L719.102 42.7266L724.035 42.9424C726.035 43.0299 727.134 44.362 727.072 45.7808C727.036 46.6047 726.648 47.3214 725.734 47.8775C726.608 48.2368 727.425 48.9145 727.363 50.3333ZM720.631 44.3985L720.513 47.0988L723.624 47.2349C724.735 47.2836 725.341 46.6681 725.373 45.9358C725.403 45.2493 724.94 44.6329 723.963 44.5901L720.629 44.4442L720.631 44.3985ZM724.06 51.5186C725.216 51.5692 725.644 50.9459 725.676 50.2136C725.71 49.4356 725.203 48.8172 724.18 48.7725L720.447 48.6092L720.327 51.3553L724.06 51.5186Z" fill="#ADB7FF"/>
<path d="M733.953 48.283L738.078 53.737L735.945 53.6436L732.451 49.0427L730.584 48.961L730.39 53.4005L728.79 53.3305L729.234 43.1699L730.834 43.2399L730.65 47.4506L732.517 47.5323L736.301 43.4791L738.434 43.5725L733.953 48.283Z" fill="#ADB7FF"/>
<path d="M743.512 43.5654C746.535 43.6977 748.614 46.0356 748.48 49.1021C748.346 52.1686 746.07 54.3159 743.048 54.1837C740.026 54.0515 737.946 51.7135 738.08 48.647C738.214 45.5805 740.535 43.4351 743.512 43.5654ZM743.118 52.5818C745.162 52.6713 746.743 51.1355 746.836 49.0301C746.93 46.879 745.487 45.2568 743.442 45.1673C741.398 45.0779 739.817 46.6136 739.725 48.719C739.675 50.872 741.073 52.4923 743.118 52.5818Z" fill="#ADB7FF"/>
<path d="M759.632 44.4983L761.187 44.5663L760.743 54.7269L759.098 54.655L759.429 47.1032L756.035 51.4027L755.012 51.358L752.007 46.7784L751.676 54.3302L750.032 54.2582L750.477 44.0977L752.032 44.1657L755.581 49.5486L759.632 44.4983Z" fill="#ADB7FF"/>
<path d="M768.425 49.0565C770.603 49.1518 771.701 50.5297 771.628 52.1773C771.554 53.8707 770.296 55.1455 768.252 55.0561L762.919 54.8227L763.363 44.6621L771.052 44.9986L770.982 46.6004L764.938 46.336L764.825 48.899L768.425 49.0565ZM768.278 53.4522C769.389 53.5008 769.95 52.8834 769.984 52.1054C770.016 51.3731 769.557 50.6651 768.402 50.6146L764.757 50.4551L764.635 53.247L768.28 53.4065L768.278 53.4522Z" fill="#ADB7FF"/>
<path d="M780.473 55.5926L779.516 53.0286L774.85 52.8244L773.673 55.295L771.895 55.2172L776.606 45.2433L778.384 45.3211L782.206 55.6684L780.473 55.5926ZM775.585 51.2975L778.962 51.4453L777.45 47.3438L775.585 51.2975Z" fill="#ADB7FF"/>
<path d="M791.236 45.8834L792.835 45.9534L792.391 56.114L790.791 56.044L790.981 51.696L785.292 51.447L785.102 55.795L783.458 55.7231L783.902 45.5625L785.547 45.6345L785.362 49.8451L791.051 50.0941L791.236 45.8834Z" fill="#ADB7FF"/>
<path d="M799.735 51.1619L803.86 56.6159L801.726 56.5225L798.276 51.9235L796.41 51.8418L796.215 56.2814L794.571 56.2094L795.016 46.0488L796.66 46.1208L796.476 50.3315L798.342 50.4132L802.082 46.358L804.26 46.4533L799.735 51.1619Z" fill="#ADB7FF"/>
<path d="M704.554 57.6865L701.221 57.5407L700.865 65.6875L699.309 65.6194L699.666 57.4726L696.332 57.3268L696.398 55.8164L704.62 56.1762L704.554 57.6865Z" fill="#ADB7FF"/>
<path d="M723.623 66.6807L721.756 66.599L718.987 62.7177L715.889 66.3423L714.023 66.2606L718.059 61.5307L714.579 56.6093L716.445 56.691L719.087 60.4293L722.045 56.9361L723.912 57.0177L720.017 61.5705L723.623 66.6807Z" fill="#ADB7FF"/>
<path d="M740.187 57.542C743.031 57.6665 745.026 59.909 744.9 62.7924C744.774 65.6758 742.591 67.7356 739.747 67.6111C736.902 67.4866 734.907 65.2441 735.034 62.3607C735.162 59.4315 737.343 57.4176 740.187 57.542ZM739.813 66.1007C741.768 66.1863 743.256 64.7382 743.345 62.7244C743.433 60.7106 742.077 59.138 740.121 59.0524C738.166 58.9668 736.677 60.415 736.589 62.4288C736.501 64.4426 737.857 66.0152 739.813 66.1007Z" fill="#ADB7FF"/>
<path d="M760.711 58.4385C763.555 58.563 765.55 60.8055 765.423 63.6889C765.297 66.5723 763.114 68.632 760.27 68.5076C757.426 68.3831 755.431 66.1406 755.557 63.2572C755.685 60.328 757.866 58.3141 760.711 58.4385ZM760.336 66.9972C762.292 67.0828 763.78 65.6347 763.868 63.6208C763.956 61.607 762.6 60.0344 760.644 59.9489C758.689 59.8633 757.201 61.3114 757.113 63.3252C757.024 65.3391 758.381 66.9116 760.336 66.9972Z" fill="#ADB7FF"/>
<path d="M732.312 57.3874L733.823 57.4535L733.401 67.1106L731.89 67.0445L732.074 62.8338L726.652 62.5965L726.467 66.8072L724.956 66.7411L725.379 57.084L726.89 57.1501L726.718 61.0862L732.14 61.3234L732.312 57.3874Z" fill="#ADB7FF"/>
<path d="M782.661 59.5905L784.083 59.6527L783.661 69.3098L782.15 69.2437L782.466 62.0123L776.639 69.0026L775.261 68.9423L775.684 59.2852L777.195 59.3513L776.88 66.5369L782.661 59.5905Z" fill="#ADB7FF"/>
<path d="M793.239 60.0534L794.662 60.1156L794.239 69.7727L792.728 69.7066L793.044 62.4752L787.217 69.4655L785.839 69.4052L786.262 59.748L787.773 59.8142L787.458 66.9998L793.239 60.0534Z" fill="#ADB7FF"/>
<path d="M707.283 64.4531L712.972 64.7021L712.906 66.2124L705.706 65.8974L706.129 56.2402L713.195 56.5494L713.129 58.0598L707.574 57.8167L707.464 60.334L712.575 60.5576L712.509 62.068L707.398 61.8443L707.283 64.4531Z" fill="#ADB7FF"/>
<path d="M665.913 52.2736C665.587 59.734 671.187 66.078 678.476 66.397C678.654 66.4047 678.831 66.4125 679.009 66.4203L679.235 61.2484L678.702 61.2251C674.213 61.0286 670.733 57.1161 670.935 52.4934C671.138 47.8707 674.946 44.2771 679.435 44.4735L679.968 44.4969L680.193 39.3707C680.015 39.363 679.837 39.3552 679.659 39.3474C672.373 38.9827 666.24 44.8133 665.913 52.2736Z" fill="#ADB7FF"/>
<path d="M682.233 39.6937L681.925 46.7421L679.302 46.6274C675.969 46.4815 673.136 49.1548 672.986 52.5875C672.835 56.0202 675.424 58.9307 678.758 59.0766L681.38 59.1913L681.071 66.2398C687.127 65.2208 691.899 59.9726 692.185 53.4277C692.472 46.8827 688.177 41.2378 682.233 39.6937Z" fill="#ADB7FF"/>
<path d="M753.704 67.9984L752.148 67.9303L752.503 59.8293L748.681 59.662L748.647 60.4401C748.533 63.0489 748.158 65.5087 747.213 66.7513C746.643 67.5518 745.878 67.7476 745.122 67.7146C745.033 67.7107 744.9 67.7048 744.767 67.699L744.833 66.1886C745.453 66.2616 745.908 66.0522 746.198 65.5147C746.875 64.3062 747.072 61.8386 747.17 59.5959L747.236 58.0856L754.08 58.385L753.66 67.9964L753.704 67.9984Z" fill="#ADB7FF"/>
<path d="M773.978 60.7697L768.912 60.548L768.557 68.649L767.046 68.5829L767.469 58.9258L774.046 59.2136L773.978 60.7697Z" fill="#ADB7FF"/>
</g>
<path d="M843.151 64.8384L846.137 70.3416L854.952 65.3489L853.975 75.5174L860.411 75.7958L860.316 65.581L868.666 71.3163L872.117 66.0916L863.743 60.8926L872.534 56.4363L869.548 50.9331L860.734 55.9258L861.711 45.7573L855.274 45.4788L855.37 55.6937L847.019 49.9583L843.569 55.1831L851.942 60.3821L843.151 64.8384Z" fill="#ADB7FF"/>
<g clip-path="url(#clip4_62_239)">
<path d="M948.076 52.3974C949.854 52.4752 951.242 53.3155 951.838 53.9377L950.76 55.1745C950.291 54.6955 949.251 54.0538 948.006 53.9993C945.784 53.9021 944.338 55.3979 944.244 57.5491C944.15 59.7002 945.371 61.3127 947.682 61.4138C949.015 61.4722 950.203 60.7904 950.714 60.3084L951.633 61.6784C950.983 62.292 949.434 63.0955 947.612 63.0157C944.367 62.8738 942.466 60.5436 942.6 57.4771C942.734 54.4106 944.876 52.2574 948.076 52.3974Z" fill="#ADB7FF"/>
<path d="M958.126 52.8369C961.148 52.9692 963.227 55.3071 963.093 58.3736C962.959 61.4401 960.683 63.5874 957.661 63.4552C954.639 63.3229 952.559 60.985 952.693 57.9185C952.828 54.852 955.104 52.7047 958.126 52.8369ZM957.731 61.8533C959.776 61.9427 961.357 60.407 961.449 58.3016C961.543 56.1505 960.1 54.5283 958.056 54.4388C956.011 54.3493 954.43 55.8851 954.338 57.9905C954.244 60.1416 955.687 61.7638 957.731 61.8533Z" fill="#ADB7FF"/>
<path d="M973.351 60.9778C973.285 62.4882 972.29 63.8662 969.89 63.7612L964.645 63.5317L965.09 53.3711L970.023 53.587C972.023 53.6745 973.122 55.0066 973.06 56.4254C973.024 57.2492 972.637 57.9659 971.722 58.522C972.597 58.8813 973.413 59.559 973.351 60.9778ZM966.62 55.043L966.502 57.7433L969.613 57.8795C970.724 57.9281 971.329 57.3126 971.362 56.5803C971.392 55.8938 970.929 55.2774 969.951 55.2346L966.618 55.0888L966.62 55.043ZM970.049 62.1632C971.204 62.2137 971.632 61.5905 971.664 60.8582C971.698 60.0801 971.191 59.4618 970.169 59.417L966.435 59.2537L966.315 61.9998L970.049 62.1632Z" fill="#ADB7FF"/>
<path d="M979.942 58.9295L984.067 64.3834L981.933 64.2901L978.439 59.6891L976.572 59.6075L976.378 64.047L974.778 63.977L975.223 53.8164L976.823 53.8864L976.638 58.0971L978.505 58.1788L982.289 54.1256L984.422 54.219L979.942 58.9295Z" fill="#ADB7FF"/>
<path d="M989.501 54.21C992.523 54.3422 994.602 56.6801 994.468 59.7466C994.334 62.8131 992.058 64.9605 989.036 64.8282C986.014 64.696 983.934 62.358 984.068 59.2916C984.203 56.2251 986.523 54.0797 989.501 54.21ZM989.106 63.2263C991.151 63.3158 992.732 61.78 992.824 59.6747C992.918 57.5236 991.475 55.9013 989.431 55.8119C987.386 55.7224 985.805 57.2582 985.713 59.3635C985.663 61.5166 987.062 63.1369 989.106 63.2263Z" fill="#ADB7FF"/>
<path d="M1005.63 55.1467L1007.18 55.2148L1006.74 65.3754L1005.09 65.3034L1005.42 57.7516L1002.03 62.0511L1001.01 62.0064L998.003 57.4268L997.672 64.9786L996.028 64.9067L996.473 54.7461L998.028 54.8142L1001.58 60.1971L1005.63 55.1467Z" fill="#ADB7FF"/>
<path d="M1014.43 59.705C1016.6 59.8002 1017.7 61.1781 1017.63 62.8258C1017.55 64.5192 1016.3 65.794 1014.25 65.7045L1008.92 65.4711L1009.36 55.3105L1017.05 55.647L1016.98 57.2489L1010.94 56.9844L1010.83 59.5474L1014.43 59.705ZM1014.28 64.1007C1015.39 64.1493 1015.95 63.5319 1015.98 62.7538C1016.02 62.0215 1015.56 61.3136 1014.4 61.263L1010.76 61.1036L1010.64 63.8954L1014.28 64.0549L1014.28 64.1007Z" fill="#ADB7FF"/>
<path d="M1026.47 66.239L1025.51 63.6751L1020.84 63.4709L1019.67 65.9415L1017.89 65.8637L1022.6 55.8898L1024.38 55.9676L1028.2 66.3149L1026.47 66.239ZM1021.58 61.944L1024.95 62.0918L1023.44 57.9902L1021.58 61.944Z" fill="#ADB7FF"/>
<path d="M1037.22 56.5279L1038.82 56.5979L1038.38 66.7585L1036.78 66.6885L1036.97 62.3405L1031.28 62.0916L1031.09 66.4396L1029.45 66.3676L1029.89 56.207L1031.54 56.279L1031.35 60.4897L1037.04 60.7386L1037.22 56.5279Z" fill="#ADB7FF"/>
<path d="M1045.72 61.8064L1049.85 67.2604L1047.71 67.167L1044.26 62.568L1042.4 62.4864L1042.2 66.9259L1040.56 66.8539L1041 56.6934L1042.65 56.7653L1042.46 60.976L1044.33 61.0577L1048.07 57.0026L1050.25 57.0979L1045.72 61.8064Z" fill="#ADB7FF"/>
<path d="M950.543 68.3311L947.209 68.1852L946.853 76.332L945.297 76.2639L945.654 68.1172L942.321 67.9713L942.387 66.4609L950.609 66.8207L950.543 68.3311Z" fill="#ADB7FF"/>
<path d="M969.611 77.3272L967.744 77.2455L964.975 73.3642L961.878 76.9888L960.011 76.9071L964.047 72.1772L960.567 67.2558L962.434 67.3375L965.075 71.0757L968.033 67.5826L969.9 67.6642L966.005 72.217L969.611 77.3272Z" fill="#ADB7FF"/>
<path d="M986.171 68.1866C989.016 68.311 991.011 70.5536 990.884 73.437C990.758 76.3204 988.575 78.3801 985.731 78.2556C982.887 78.1312 980.892 75.8886 981.018 73.0052C981.146 70.0761 983.327 68.0621 986.171 68.1866ZM985.797 76.7453C987.752 76.8308 989.241 75.3827 989.329 73.3689C989.417 71.3551 988.061 69.7825 986.105 69.6969C984.15 69.6114 982.662 71.0595 982.574 73.0733C982.485 75.0871 983.841 76.6597 985.797 76.7453Z" fill="#ADB7FF"/>
<path d="M1006.71 69.0831C1009.55 69.2075 1011.55 71.45 1011.42 74.3334C1011.29 77.2169 1009.11 79.2766 1006.27 79.1521C1003.42 79.0276 1001.43 76.7851 1001.55 73.9017C1001.68 70.9725 1003.86 68.9586 1006.71 69.0831ZM1006.33 77.6417C1008.29 77.7273 1009.78 76.2792 1009.86 74.2654C1009.95 72.2516 1008.6 70.679 1006.64 70.5934C1004.69 70.5078 1003.2 71.956 1003.11 73.9698C1003.02 75.9836 1004.38 77.5562 1006.33 77.6417Z" fill="#ADB7FF"/>
<path d="M978.3 68.0319L979.811 68.098L979.389 77.7552L977.878 77.689L978.062 73.4783L972.64 73.2411L972.456 77.4518L970.945 77.3856L971.367 67.7285L972.878 67.7946L972.706 71.7307L978.128 71.968L978.3 68.0319Z" fill="#ADB7FF"/>
<path d="M1028.65 70.237L1030.08 70.2992L1029.65 79.9563L1028.14 79.8902L1028.46 72.6588L1022.63 79.6491L1021.25 79.5888L1021.68 69.9316L1023.19 69.9978L1022.87 77.1834L1028.65 70.237Z" fill="#ADB7FF"/>
<path d="M1039.24 70.6979L1040.66 70.7601L1040.24 80.4173L1038.72 80.3511L1039.04 73.1197L1033.21 80.11L1031.84 80.0497L1032.26 70.3926L1033.77 70.4587L1033.45 77.6443L1039.24 70.6979Z" fill="#ADB7FF"/>
<path d="M953.28 75.0977L958.968 75.3466L958.902 76.8569L951.702 76.5419L952.125 66.8848L959.192 67.194L959.125 68.7043L953.57 68.4612L953.46 70.9785L958.571 71.2022L958.505 72.7125L953.394 72.4889L953.28 75.0977Z" fill="#ADB7FF"/>
<path d="M911.909 62.9201C911.583 70.3805 917.183 76.7245 924.472 77.0435C924.65 77.0512 924.827 77.059 925.005 77.0668L925.231 71.8949L924.698 71.8715C920.209 71.6751 916.729 67.7626 916.931 63.1399C917.134 58.5172 920.942 54.9236 925.431 55.12L925.964 55.1434L926.189 50.0172C926.011 50.0094 925.833 50.0017 925.655 49.9939C918.369 49.6292 912.236 55.4598 911.909 62.9201Z" fill="#ADB7FF"/>
<path d="M928.221 50.3382L927.913 57.3867L925.291 57.2719C921.957 57.1261 919.124 59.7994 918.974 63.232C918.824 66.6647 921.413 69.5753 924.746 69.7211L927.368 69.8359L927.06 76.8843C933.116 75.8653 937.887 70.6172 938.174 64.0722C938.46 57.5272 934.165 51.8823 928.221 50.3382Z" fill="#ADB7FF"/>
<path d="M999.7 78.6429L998.145 78.5748L998.499 70.4738L994.677 70.3066L994.643 71.0846C994.529 73.6934 994.154 76.1532 993.209 77.3959C992.64 78.1964 991.874 78.3921 991.118 78.3591C991.03 78.3552 990.896 78.3494 990.763 78.3435L990.829 76.8332C991.449 76.9062 991.904 76.6968 992.194 76.1592C992.871 74.9507 993.068 72.4831 993.166 70.2404L993.232 68.7301L1000.08 69.0296L999.656 78.6409L999.7 78.6429Z" fill="#ADB7FF"/>
<path d="M1019.96 71.4143L1014.9 71.1926L1014.54 79.2936L1013.03 79.2274L1013.45 69.5703L1020.03 69.8581L1019.96 71.4143Z" fill="#ADB7FF"/>
</g>
<path d="M1089.15 75.4809L1092.13 80.9842L1100.95 75.9915L1099.97 86.1599L1106.41 86.4384L1106.31 76.2236L1114.66 81.9589L1118.11 76.7341L1109.74 71.5352L1118.53 67.0789L1115.54 61.5756L1106.73 66.5683L1107.71 56.3999L1101.27 56.1214L1101.37 66.3363L1093.02 60.6009L1089.56 65.8257L1097.94 71.0246L1089.15 75.4809Z" fill="#ADB7FF"/>
<g clip-path="url(#clip5_62_239)">
<path d="M1194.07 63.04C1195.85 63.1178 1197.24 63.9581 1197.83 64.5803L1196.76 65.8171C1196.29 65.338 1195.25 64.6964 1194 64.6419C1191.78 64.5447 1190.33 66.0405 1190.24 68.1916C1190.15 70.3428 1191.37 71.9553 1193.68 72.0564C1195.01 72.1147 1196.2 71.433 1196.71 70.951L1197.63 72.321C1196.98 72.9346 1195.43 73.738 1193.61 73.6583C1190.36 73.5163 1188.46 71.1862 1188.6 68.1197C1188.73 65.0532 1190.87 62.9 1194.07 63.04Z" fill="#ADB7FF"/>
<path d="M1204.12 63.4795C1207.14 63.6117 1209.22 65.9497 1209.09 69.0162C1208.96 72.0826 1206.68 74.23 1203.66 74.0978C1200.63 73.9655 1198.56 71.6276 1198.69 68.5611C1198.82 65.4946 1201.1 63.3472 1204.12 63.4795ZM1203.73 72.4959C1205.77 72.5853 1207.35 71.0495 1207.44 68.9442C1207.54 66.7931 1206.1 65.1708 1204.05 65.0814C1202.01 64.9919 1200.43 66.5277 1200.33 68.633C1200.24 70.7842 1201.68 72.4064 1203.73 72.4959Z" fill="#ADB7FF"/>
<path d="M1219.35 71.6204C1219.28 73.1308 1218.29 74.5088 1215.89 74.4037L1210.64 74.1743L1211.09 64.0137L1216.02 64.2295C1218.02 64.3171 1219.12 65.6491 1219.06 67.068C1219.02 67.8918 1218.63 68.6085 1217.72 69.1646C1218.59 69.5239 1219.41 70.2016 1219.35 71.6204ZM1212.62 65.6856L1212.5 68.3859L1215.61 68.522C1216.72 68.5707 1217.33 67.9552 1217.36 67.2229C1217.39 66.5364 1216.92 65.92 1215.95 65.8772L1212.61 65.7313L1212.62 65.6856ZM1216.04 72.8057C1217.2 72.8563 1217.63 72.233 1217.66 71.5007C1217.69 70.7227 1217.19 70.1044 1216.16 70.0596L1212.43 69.8963L1212.31 72.6424L1216.04 72.8057Z" fill="#ADB7FF"/>
<path d="M1225.94 69.5721L1230.06 75.026L1227.93 74.9327L1224.43 70.3317L1222.57 70.25L1222.37 74.6896L1220.77 74.6196L1221.22 64.459L1222.82 64.529L1222.63 68.7397L1224.5 68.8214L1228.29 64.7682L1230.42 64.8615L1225.94 69.5721Z" fill="#ADB7FF"/>
<path d="M1235.5 64.8525C1238.52 64.9848 1240.6 67.3227 1240.46 70.3892C1240.33 73.4557 1238.05 75.603 1235.03 75.4708C1232.01 75.3386 1229.93 73.0006 1230.06 69.9341C1230.2 66.8677 1232.52 64.7222 1235.5 64.8525ZM1235.1 73.8689C1237.15 73.9584 1238.73 72.4226 1238.82 70.3172C1238.91 68.1661 1237.47 66.5439 1235.43 66.4544C1233.38 66.365 1231.8 67.9007 1231.71 70.0061C1231.66 72.1592 1233.06 73.7795 1235.1 73.8689Z" fill="#ADB7FF"/>
<path d="M1251.62 65.7893L1253.18 65.8574L1252.74 76.0179L1251.09 75.946L1251.42 68.3942L1248.03 72.6937L1247 72.649L1244 68.0694L1243.67 75.6212L1242.02 75.5493L1242.47 65.3887L1244.02 65.4567L1247.57 70.8396L1251.62 65.7893Z" fill="#ADB7FF"/>
<path d="M1260.42 70.3475C1262.6 70.4428 1263.7 71.8207 1263.62 73.4683C1263.55 75.1618 1262.29 76.4365 1260.25 76.3471L1254.91 76.1137L1255.36 65.9531L1263.05 66.2896L1262.98 67.8915L1256.93 67.627L1256.82 70.19L1260.42 70.3475ZM1260.27 74.7432C1261.38 74.7919 1261.95 74.1744 1261.98 73.3964C1262.01 72.6641 1261.55 71.9562 1260.4 71.9056L1256.75 71.7461L1256.63 74.538L1260.28 74.6975L1260.27 74.7432Z" fill="#ADB7FF"/>
<path d="M1272.46 76.8816L1271.5 74.3177L1266.84 74.1135L1265.66 76.5841L1263.88 76.5063L1268.59 66.5324L1270.37 66.6102L1274.19 76.9575L1272.46 76.8816ZM1267.57 72.5865L1270.95 72.7343L1269.44 68.6328L1267.57 72.5865Z" fill="#ADB7FF"/>
<path d="M1283.22 67.1705L1284.82 67.2405L1284.38 77.4011L1282.78 77.3311L1282.97 72.9831L1277.28 72.7342L1277.09 77.0821L1275.44 77.0102L1275.89 66.8496L1277.53 66.9216L1277.35 71.1323L1283.04 71.3812L1283.22 67.1705Z" fill="#ADB7FF"/>
<path d="M1291.72 72.449L1295.84 77.903L1293.71 77.8096L1290.26 73.2106L1288.39 73.1289L1288.2 77.5685L1286.56 77.4965L1287 67.3359L1288.64 67.4079L1288.46 71.6186L1290.33 71.7003L1294.07 67.6452L1296.24 67.7404L1291.72 72.449Z" fill="#ADB7FF"/>
<path d="M1196.54 78.9737L1193.21 78.8278L1192.85 86.9746L1191.29 86.9065L1191.65 78.7597L1188.32 78.6139L1188.38 77.1035L1196.6 77.4633L1196.54 78.9737Z" fill="#ADB7FF"/>
<path d="M1215.61 87.9698L1213.74 87.8881L1210.97 84.0067L1207.87 87.6314L1206.01 87.5497L1210.04 82.8197L1206.56 77.8984L1208.43 77.9801L1211.07 81.7183L1214.03 78.2251L1215.9 78.3068L1212 82.8595L1215.61 87.9698Z" fill="#ADB7FF"/>
<path d="M1232.17 78.8291C1235.01 78.9536 1237.01 81.1961 1236.88 84.0795C1236.75 86.963 1234.57 89.0227 1231.73 88.8982C1228.88 88.7737 1226.89 86.5312 1227.01 83.6478C1227.14 80.7186 1229.32 78.7047 1232.17 78.8291ZM1231.79 87.3878C1233.75 87.4734 1235.24 86.0253 1235.32 84.0115C1235.41 81.9977 1234.06 80.4251 1232.1 80.3395C1230.15 80.2539 1228.66 81.7021 1228.57 83.7159C1228.48 85.7297 1229.84 87.3023 1231.79 87.3878Z" fill="#ADB7FF"/>
<path d="M1252.7 79.7256C1255.55 79.8501 1257.54 82.0926 1257.42 84.976C1257.29 87.8594 1255.11 89.9191 1252.26 89.7947C1249.42 89.6702 1247.42 87.4277 1247.55 84.5443C1247.68 81.6151 1249.86 79.6012 1252.7 79.7256ZM1252.33 88.2843C1254.28 88.3699 1255.77 86.9218 1255.86 84.908C1255.95 82.8941 1254.59 81.3216 1252.64 81.236C1250.68 81.1504 1249.19 82.5985 1249.1 84.6124C1249.02 86.6262 1250.37 88.1988 1252.33 88.2843Z" fill="#ADB7FF"/>
<path d="M1224.3 78.6745L1225.81 78.7406L1225.38 88.3977L1223.87 88.3316L1224.06 84.1209L1218.64 83.8837L1218.45 88.0943L1216.94 88.0282L1217.36 78.3711L1218.87 78.4372L1218.7 82.3733L1224.12 82.6106L1224.3 78.6745Z" fill="#ADB7FF"/>
<path d="M1274.65 80.8795L1276.07 80.9418L1275.65 90.5989L1274.14 90.5328L1274.45 83.3014L1268.63 90.2916L1267.25 90.2314L1267.67 80.5742L1269.18 80.6403L1268.87 87.826L1274.65 80.8795Z" fill="#ADB7FF"/>
<path d="M1285.23 81.3405L1286.65 81.4027L1286.23 91.0598L1284.72 90.9937L1285.04 83.7623L1279.21 90.7526L1277.83 90.6923L1278.25 81.0352L1279.76 81.1013L1279.45 88.2869L1285.23 81.3405Z" fill="#ADB7FF"/>
<path d="M1199.28 85.7402L1204.96 85.9892L1204.9 87.4995L1197.7 87.1845L1198.12 77.5273L1205.19 77.8366L1205.12 79.3469L1199.57 79.1038L1199.46 81.6211L1204.57 81.8447L1204.5 83.3551L1199.39 83.1314L1199.28 85.7402Z" fill="#ADB7FF"/>
<path d="M1157.91 73.5627C1157.58 81.0231 1163.18 87.3671 1170.47 87.686C1170.65 87.6938 1170.82 87.7016 1171 87.7094L1171.23 82.5375L1170.69 82.5141C1166.21 82.3177 1162.73 78.4052 1162.93 73.7825C1163.13 69.1598 1166.94 65.5662 1171.43 65.7626L1171.96 65.7859L1172.18 60.6598C1172.01 60.652 1171.83 60.6442 1171.65 60.6365C1164.36 60.2717 1158.23 66.1023 1157.91 73.5627Z" fill="#ADB7FF"/>
<path d="M1174.22 60.9808L1173.91 68.0292L1171.29 67.9145C1167.95 67.7686 1165.12 70.4419 1164.97 73.8746C1164.82 77.3073 1167.41 80.2179 1170.74 80.3637L1173.36 80.4785L1173.06 87.5269C1179.11 86.5079 1183.88 81.2598 1184.17 74.7148C1184.46 68.1698 1180.16 62.5249 1174.22 60.9808Z" fill="#ADB7FF"/>
<path d="M1245.7 89.2855L1244.14 89.2174L1244.5 81.1164L1240.67 80.9491L1240.64 81.7272C1240.52 84.336 1240.15 86.7958 1239.21 88.0384C1238.64 88.8389 1237.87 89.0347 1237.11 89.0017C1237.03 88.9978 1236.89 88.9919 1236.76 88.9861L1236.83 87.4757C1237.45 87.5487 1237.9 87.3393 1238.19 86.8018C1238.87 85.5933 1239.06 83.1257 1239.16 80.883L1239.23 79.3727L1246.07 79.6722L1245.65 89.2835L1245.7 89.2855Z" fill="#ADB7FF"/>
<path d="M1265.96 82.0568L1260.89 81.8351L1260.54 89.9361L1259.03 89.87L1259.45 80.2129L1266.03 80.5007L1265.96 82.0568Z" fill="#ADB7FF"/>
</g>
<path d="M1335.14 86.1255L1338.13 91.6287L1346.94 86.636L1345.97 96.8045L1352.4 97.083L1352.31 86.8681L1360.66 92.6034L1364.11 87.3787L1355.74 82.1797L1364.53 77.7234L1361.54 72.2202L1352.73 77.2129L1353.7 67.0444L1347.27 66.766L1347.36 76.9808L1339.01 71.2455L1335.56 76.4702L1343.93 81.6692L1335.14 86.1255Z" fill="#ADB7FF"/>
<g clip-path="url(#clip6_62_239)">
<path d="M1440.07 73.6846C1441.85 73.7623 1443.23 74.6026 1443.83 75.2249L1442.75 76.4616C1442.28 75.9826 1441.24 75.3409 1440 75.2865C1437.78 75.1892 1436.33 76.6851 1436.24 78.8362C1436.14 80.9873 1437.36 82.5998 1439.67 82.7009C1441.01 82.7593 1442.19 82.0775 1442.71 81.5955L1443.63 82.9656C1442.98 83.5791 1441.43 84.3826 1439.6 84.3028C1436.36 84.1609 1434.46 81.8307 1434.59 78.7642C1434.73 75.6977 1436.87 73.5445 1440.07 73.6846Z" fill="#ADB7FF"/>
<path d="M1450.11 74.1221C1453.14 74.2543 1455.22 76.5923 1455.08 79.6587C1454.95 82.7252 1452.67 84.8726 1449.65 84.7403C1446.63 84.6081 1444.55 82.2701 1444.68 79.2037C1444.82 76.1372 1447.09 73.9898 1450.11 74.1221ZM1449.72 83.1384C1451.76 83.2279 1453.34 81.6921 1453.44 79.5868C1453.53 77.4357 1452.09 75.8134 1450.04 75.724C1448 75.6345 1446.42 77.1703 1446.33 79.2756C1446.23 81.4267 1447.68 83.049 1449.72 83.1384Z" fill="#ADB7FF"/>
<path d="M1465.35 82.2649C1465.28 83.7753 1464.29 85.1533 1461.89 85.0483L1456.65 84.8188L1457.09 74.6582L1462.02 74.8741C1464.02 74.9616 1465.12 76.2937 1465.06 77.7125C1465.02 78.5363 1464.64 79.253 1463.72 79.8091C1464.6 80.1684 1465.41 80.8461 1465.35 82.2649ZM1458.62 76.3301L1458.5 79.0304L1461.61 79.1666C1462.72 79.2152 1463.33 78.5997 1463.36 77.8674C1463.39 77.1809 1462.93 76.5645 1461.95 76.5217L1458.62 76.3759L1458.62 76.3301ZM1462.05 83.4503C1463.2 83.5008 1463.63 82.8776 1463.66 82.1453C1463.7 81.3672 1463.19 80.7489 1462.17 80.7042L1458.44 80.5408L1458.32 83.2869L1462.05 83.4503Z" fill="#ADB7FF"/>
<path d="M1471.93 80.2107L1476.06 85.6647L1473.92 85.5713L1470.43 80.9704L1468.56 80.8887L1468.37 85.3283L1466.77 85.2582L1467.21 75.0977L1468.81 75.1677L1468.63 79.3784L1470.49 79.46L1474.28 75.4069L1476.41 75.5002L1471.93 80.2107Z" fill="#ADB7FF"/>
<path d="M1481.49 75.4971C1484.51 75.6293 1486.59 77.9673 1486.46 81.0337C1486.33 84.1002 1484.05 86.2476 1481.03 86.1153C1478.01 85.9831 1475.93 83.6451 1476.06 80.5787C1476.19 77.5122 1478.52 75.3668 1481.49 75.4971ZM1481.1 84.5134C1483.14 84.6029 1484.72 83.0671 1484.82 80.9618C1484.91 78.8107 1483.47 77.1884 1481.42 77.099C1479.38 77.0095 1477.8 78.5453 1477.71 80.6506C1477.66 82.8037 1479.05 84.424 1481.1 84.5134Z" fill="#ADB7FF"/>
<path d="M1497.62 76.4319L1499.18 76.4999L1498.73 86.6605L1497.09 86.5886L1497.42 79.0368L1494.02 83.3363L1493 83.2916L1490 78.712L1489.66 86.2638L1488.02 86.1918L1488.46 76.0312L1490.02 76.0993L1493.57 81.4822L1497.62 76.4319Z" fill="#ADB7FF"/>
<path d="M1506.41 80.9901C1508.59 81.0854 1509.69 82.4632 1509.62 84.1109C1509.54 85.8043 1508.28 87.0791 1506.24 86.9897L1500.91 86.7563L1501.35 76.5957L1509.04 76.9321L1508.97 78.534L1502.93 78.2696L1502.81 80.8326L1506.41 80.9901ZM1506.27 85.3858C1507.38 85.4344 1507.94 84.817 1507.97 84.039C1508 83.3067 1507.55 82.5987 1506.39 82.5482L1502.75 82.3887L1502.62 85.1806L1506.27 85.34L1506.27 85.3858Z" fill="#ADB7FF"/>
<path d="M1518.46 87.5242L1517.5 84.9603L1512.84 84.7561L1511.66 87.2267L1509.88 87.1489L1514.59 77.175L1516.37 77.2528L1520.19 87.6L1518.46 87.5242ZM1513.57 83.2291L1516.95 83.3769L1515.44 79.2754L1513.57 83.2291Z" fill="#ADB7FF"/>
<path d="M1442.54 89.6162L1439.21 89.4704L1438.85 97.6171L1437.29 97.5491L1437.65 89.4023L1434.32 89.2565L1434.38 87.7461L1442.6 88.1059L1442.54 89.6162Z" fill="#ADB7FF"/>
<path d="M1461.6 98.6104L1459.74 98.5287L1456.97 94.6474L1453.87 98.272L1452 98.1903L1456.04 93.4604L1452.56 88.539L1454.43 88.6207L1457.07 92.3589L1460.03 88.8658L1461.89 88.9474L1458 93.5002L1461.6 98.6104Z" fill="#ADB7FF"/>
<path d="M1478.16 89.4717C1481.01 89.5962 1483 91.8387 1482.88 94.7221C1482.75 97.6055 1480.57 99.6652 1477.72 99.5408C1474.88 99.4163 1472.88 97.1738 1473.01 94.2904C1473.14 91.3612 1475.32 89.3473 1478.16 89.4717ZM1477.79 98.0304C1479.74 98.116 1481.23 96.6679 1481.32 94.6541C1481.41 92.6402 1480.05 91.0677 1478.1 90.9821C1476.14 90.8965 1474.65 92.3446 1474.57 94.3585C1474.48 96.3723 1475.83 97.9448 1477.79 98.0304Z" fill="#ADB7FF"/>
<path d="M1498.7 90.3702C1501.54 90.4946 1503.54 92.7371 1503.41 95.6206C1503.29 98.504 1501.1 100.564 1498.26 100.439C1495.41 100.315 1493.42 98.0722 1493.55 95.1888C1493.67 92.2596 1495.85 90.2457 1498.7 90.3702ZM1498.32 98.9289C1500.28 99.0144 1501.77 97.5663 1501.86 95.5525C1501.94 93.5387 1500.59 91.9661 1498.63 91.8805C1496.68 91.795 1495.19 93.2431 1495.1 95.2569C1495.01 97.2707 1496.37 98.8433 1498.32 98.9289Z" fill="#ADB7FF"/>
<path d="M1470.29 89.3151L1471.8 89.3812L1471.38 99.0384L1469.87 98.9722L1470.05 94.7615L1464.63 94.5243L1464.44 98.735L1462.93 98.6689L1463.36 89.0117L1464.87 89.0778L1464.69 93.0139L1470.12 93.2512L1470.29 89.3151Z" fill="#ADB7FF"/>
<path d="M1445.27 96.3828L1450.96 96.6317L1450.89 98.1421L1443.69 97.8271L1444.11 88.1699L1451.18 88.4791L1451.11 89.9895L1445.56 89.7464L1445.45 92.2637L1450.56 92.4873L1450.49 93.9977L1445.38 93.774L1445.27 96.3828Z" fill="#ADB7FF"/>
<path d="M1403.9 84.2053C1403.57 91.6657 1409.18 98.0097 1416.46 98.3286C1416.64 98.3364 1416.82 98.3442 1417 98.3519L1417.22 93.18L1416.69 93.1567C1412.2 92.9603 1408.72 89.0477 1408.92 84.425C1409.13 79.8024 1412.93 76.2088 1417.42 76.4052L1417.96 76.4285L1418.18 71.3024C1418 71.2946 1417.83 71.2868 1417.65 71.279C1410.36 70.9143 1404.23 76.7449 1403.9 84.2053Z" fill="#ADB7FF"/>
<path d="M1420.22 71.6253L1419.91 78.6738L1417.29 78.559C1413.95 78.4132 1411.12 81.0865 1410.97 84.5191C1410.82 87.9518 1413.41 90.8624 1416.74 91.0082L1419.36 91.123L1419.06 98.1714C1425.11 97.1524 1429.88 91.9043 1430.17 85.3593C1430.46 78.8143 1426.16 73.1694 1420.22 71.6253Z" fill="#ADB7FF"/>
<path d="M1491.69 99.93L1490.14 99.8619L1490.49 91.7609L1486.67 91.5937L1486.64 92.3717C1486.52 94.9805 1486.15 97.4404 1485.2 98.683C1484.63 99.4835 1483.87 99.6793 1483.11 99.6462C1483.02 99.6423 1482.89 99.6365 1482.76 99.6306L1482.82 98.1203C1483.44 98.1933 1483.9 97.9839 1484.19 97.4463C1484.86 96.2378 1485.06 93.7702 1485.16 91.5275L1485.22 90.0172L1492.07 90.3167L1491.65 99.928L1491.69 99.93Z" fill="#ADB7FF"/>
<path d="M1511.96 92.6994L1506.89 92.4777L1506.54 100.579L1505.03 100.513L1505.45 90.8555L1512.03 91.1433L1511.96 92.6994Z" fill="#ADB7FF"/>
</g>
<defs>
<clipPath id="clip0_62_239">
<rect width="137.999" height="27.0758" fill="white" transform="translate(-71.4844 6.8457) rotate(2.50554)"/>
</clipPath>
<clipPath id="clip1_62_239">
<rect width="137.999" height="27.0758" fill="white" transform="translate(174.512 17.4883) rotate(2.50554)"/>
</clipPath>
<clipPath id="clip2_62_239">
<rect width="137.999" height="27.0758" fill="white" transform="translate(420.508 28.1309) rotate(2.50554)"/>
</clipPath>
<clipPath id="clip3_62_239">
<rect width="137.999" height="27.0758" fill="white" transform="translate(666.504 38.7734) rotate(2.50554)"/>
</clipPath>
<clipPath id="clip4_62_239">
<rect width="137.999" height="27.0758" fill="white" transform="translate(912.5 49.418) rotate(2.50554)"/>
</clipPath>
<clipPath id="clip5_62_239">
<rect width="137.999" height="27.0758" fill="white" transform="translate(1158.5 60.0605) rotate(2.50554)"/>
</clipPath>
<clipPath id="clip6_62_239">
<rect width="137.999" height="27.0758" fill="white" transform="translate(1404.49 70.7031) rotate(2.50554)"/>
</clipPath>
</defs>
</svg>
