<svg width="120" height="33" viewBox="0 0 120 33" fill="none" xmlns="http://www.w3.org/2000/svg">
<circle cx="16" cy="16" r="16" transform="matrix(-1 0 0 1 120 0.294922)" fill="white" fill-opacity="0.6"/>
<path d="M110.375 9.33984L97.0192 22.6956" stroke="white" stroke-width="2.73157" stroke-linecap="round"/>
<path d="M110.949 22.6953L97.5934 9.33952" stroke="white" stroke-width="2.73157" stroke-linecap="round"/>
<circle cx="16" cy="16" r="16" transform="matrix(-1 0 0 1 76 0.294922)" fill="white" fill-opacity="0.6"/>
<path d="M50.8867 24.011L63.2188 24.011L63.2188 13.5762L50.8867 13.5762L50.8867 24.011Z" stroke="white" stroke-width="2.73157" stroke-linecap="round" stroke-linejoin="round"/>
<path d="M55.6289 13.2302L55.6289 8.83203L67.9609 8.83203L67.9609 19.2669L63.6921 19.2669" stroke="white" stroke-width="2.73157" stroke-linecap="round" stroke-linejoin="round"/>
<circle cx="16" cy="16" r="16" transform="matrix(-1 0 0 1 32 0.294922)" fill="white" fill-opacity="0.6"/>
<path d="M25.1562 16.2949L6.87054 16.2949" stroke="white" stroke-width="2.73157" stroke-linecap="round"/>
</svg>
